# xmcd CD database file
#
# Track frame offsets:
#	150
#	12683
#	27624
#	41642
#	54324
#	70935
#	84940
#	96888
#	116697
#	128607
#	138608
#	153208
#	166447
#
# Disc length: 2520 seconds
#
# Revision: 0
# Processed by: cddbd v1.5PL3 Copyright (c) Steve Scherf et al.
# Submitted via: CDex 1.50
#
DISCID=ad09d60d
DTITLE=Angie LaDuke - There Once Was Love
DYEAR=1999
DGENRE=Jazz
TTITLE0=Love Me or Leave Me
TTITLE1=Telephone Blues
TTITLE2=There Once Was Love
TTITLE3=Start the Game of Life
TTITLE4=Son of the Beach
TTITLE5=I Can't Give Up Everything
TTITLE6=Did I Say I Love You?
TTITLE7=Mustn't Give In to the Blues
TTITLE8=Taste the Bittersweet of Love
TTITLE9=I Would Rather Have You
TTITLE10=What Does It Profit a Man?
TTITLE11=Way Back Then
TTITLE12=Broken Dreams
EXTD=YEAR: 1999
EXTT0=
EXTT1=
EXTT2=
EXTT3=
EXTT4=
EXTT5=
EXTT6=
EXTT7=
EXTT8=
EXTT9=
EXTT10=
EXTT11=
EXTT12=
PLAYORDER=
